<svg version="1" xmlns="http://www.w3.org/2000/svg" width="4445.333" height="4445.333" viewBox="0 0 3334.000000 3334.000000"><path d="M1635.7.6c-.1.1-10.2.5-22.5.8-12.3.4-25.3.9-29 1.1-3.7.2-11 .7-16.2 1-5.2.2-12.4.7-16 1-3.6.2-10.1.7-14.5 1-4.4.3-10 .8-12.5 1-2.5.2-7.4.7-11 1-13 1.2-16.7 1.6-26 2.5-15.5 1.7-18.4 2-21 2.5-1.4.2-5.2.7-8.5 1-3.3.3-8.9 1-12.5 1.5-3.6.5-8.7 1.2-11.5 1.5-2.7.4-5.7.8-6.5 1-.8.2-3.5.7-6 1-2.5.3-7 1-10 1.5s-7.5 1.2-10 1.5c-2.5.3-11.9 1.9-21 3.5s-18.3 3.2-20.5 3.5c-2.2.4-4.8.8-5.7 1.1-1 .3-3 .7-4.5 1-1.6.2-4.8.9-7.3 1.4-2.5.5-5.6 1.2-7 1.4-8.8 1.5-49.6 10.6-67.5 15.1-9.9 2.5-19.1 4.8-20.4 5.1-15.1 3.2-72.8 20.3-105.6 31.2-9.3 3.1-17.2 5.7-17.5 5.7-.3.1-1.2.4-2 .8-.8.3-8 2.9-16 5.7-8 2.9-17.6 6.3-21.5 7.7-12.7 4.5-53.6 20.9-75 30.1-18.9 8.1-29.8 13-55 24.7-17 7.9-76.4 38-80 40.5-.5.4-5.5 3.1-11 6s-10.4 5.6-11 6c-.5.4-3 1.9-5.5 3.2-2.5 1.4-6.7 3.8-9.5 5.3-28 15.6-93.4 57-124 78.6-32 22.6-65.7 47.8-86.5 64.6-.8.7-4.6 3.7-8.5 6.8-3.8 3.1-7.9 6.4-9 7.3-19.8 16.4-42.5 35.9-54 46.3-2.7 2.5-6.7 6.1-8.9 8-26.1 23.1-86.3 82.8-108.1 107.3-.9 1-16.3 18-24.4 27.1-5 5.6-25.8 29.9-31.1 36.5-2.5 3-4.8 5.7-5.1 6-.3.3-4.1 5-8.5 10.5-4.3 5.5-8.1 10.2-8.5 10.5-2.5 2.2-38.5 50-53.1 70.5-19.7 27.6-40.4 58.7-58 87-15.1 24.2-16.8 27.1-19.4 32-1.5 2.7-2.9 5.2-3.3 5.5-.5.4-1.7 2.6-6.5 11.5-.6 1.1-1.3 2.2-1.6 2.5-.5.4-11.9 20.6-17 30.2-14.1 26.3-19.3 36.1-28.1 53.8-8.5 17.1-21.9 44.8-21.9 45.5 0 .1-2 4.5-4.4 9.6-10.2 21.8-32.6 75.6-42.1 101.4-2 5.5-4.1 11.1-4.7 12.5-2.7 6.4-20.9 59.4-22.4 65-.2.8-2.6 8.7-5.4 17.5-2.8 8.8-6 19.1-7.1 23-1 3.8-3.1 11-4.5 16-6.7 23.7-21 80.4-23.8 94.5-.2 1.4-1.8 8.8-3.5 16.5-1.6 7.7-3.2 15.3-3.5 17-.2 1.6-.9 5.5-1.5 8.5-1.6 8.2-1.8 8.8-3.5 18-.8 4.7-1.8 10.2-2.2 12.4-.3 2.1-.8 4.8-1 6-.2 1.1-.9 5.5-1.5 9.6s-1.2 7.7-1.4 8c-.2.3-.6 2.9-1 5.9-.4 3-.8 6.2-1 7.2-.2.9-.6 3.9-1 6.6-.4 2.6-.9 5.9-1.1 7.3-.2 1.4-.9 6.3-1.4 11-.6 4.7-1.3 9.6-1.5 11-.2 1.4-.6 5-1 8-.3 3-.8 6.6-1 8-.2 1.4-.7 5.4-1 9-.4 3.6-.8 7.6-1 9-.2 1.4-.6 5.6-1 9.5-.3 3.8-.8 8.9-1 11.2-1.1 10-1.5 13.2-2 20.8-.3 4.4-.8 10.5-1 13.5-.4 5-.9 12.4-2 30-.5 8.2-1.6 33.8-1.9 44.7l-.2 8.3 3.5.1h213.2c.3-.1.5-1.3.6-2.9 0-4.8 1.4-38.6 1.8-42.2.1-1.9.6-8.3.9-14.1.4-5.8.9-12.8 1.1-15.5.3-2.7.7-8.1 1-11.9.4-3.9.8-8.6 1-10.5.2-1.9.7-6.9 1-11 .4-4.1.9-8.3 1-9.2.2-.9.7-4.8 1-8.5.4-3.7.9-7.5 1-8.3.2-.9.6-4.3 1-7.5.4-3.3.9-7.4 1.2-9 .2-1.7.6-4.8.9-7 .2-2.2.6-5.1.9-6.5.2-1.4.7-4.5 1-7 .8-5.6.7-5.5 4.5-28 3-18.6 3.7-22.2 6.4-36 .9-4.1 1.8-8.6 2-10 1.8-9.6 8.1-38.4 10.7-48.5.5-2.2 1.1-4.9 1.3-6 .2-1.1 1.2-4.9 2.1-8.5.9-3.6 1.9-7.3 2.1-8.3.2-.9.6-2.5.9-3.5.2-.9 1.1-4.2 1.9-7.2 19.2-73.2 48.9-157.7 77.6-220.5 1.5-3.3 3.9-8.5 5.3-11.6 15.5-34 34.8-72.3 52-102.9 4.3-7.6 13.8-24.6 14.7-26 .5-.8 3.7-6.2 7.2-12 10.2-17.2 18.8-30.9 30.6-48.9 3.4-5.1 6.2-9.7 6.2-10.1 0-.5.3-1 .8-1.2.8-.3 7.2-9.6 7.2-10.4 0-.3.5-1 1.1-1.7.5-.7 4.1-5.7 8-11.2 20.8-30 48.9-67.2 71.8-94.9 13.2-16 29.7-35.4 31.5-37.1.6-.6 4.3-4.6 8.1-9 24.4-27.7 80.3-84.3 103.2-104.2 3.6-3.2 17.6-15.8 19.3-17.3.9-.8 4.5-4 8-7 3.6-3 6.7-5.7 7-6 1-1.1 24.6-20.7 32-26.5 4.1-3.3 7.7-6.2 8-6.5 1.8-1.9 37.2-28.9 51.5-39.2 41.9-30.5 95.5-65 136-87.8 41.6-23.4 76.3-41.1 117.7-59.9 2.6-1.1 5.2-2.1 5.7-2.1.6 0 1.1-.5 1.1-1 0-.6.8-1 1.8-1s2.6-.6 3.7-1.4c1.1-.7 2.2-1.4 2.5-1.4.3 0 2.3-.7 4.5-1.7 11.2-4.8 47.3-19.8 49.5-20.5 1.4-.5 4.8-1.7 7.5-2.8 26-10.2 91-32.6 100.8-34.7 1.6-.4 5.9-1.6 22.2-6.6 12.3-3.8 63-16.6 78.5-20 18.8-4 51.6-10.7 55.5-11.3 2.2-.4 4.7-.8 5.5-1.1.8-.2 3.3-.6 5.5-1 2.2-.3 7.6-1.2 12-2s10.3-1.7 13-2c2.8-.3 5.7-.8 6.5-1 .8-.3 3.5-.7 6-1 2.5-.3 5.6-.7 7-1 1.4-.3 4.5-.8 7-1.1 2.5-.3 5.6-.7 7-.9 1.4-.2 4.8-.7 7.5-1 2.8-.3 6.6-.8 8.5-1 1.9-.3 5.5-.7 8-1 4.7-.5 12.1-1.3 18-2 1.9-.2 6.2-.7 9.5-1 3.3-.3 7.6-.7 9.5-1 1.9-.2 7.6-.7 12.5-1.1 5-.3 10.6-.7 12.5-.9 1.9-.2 8.9-.6 15.5-1s14-.9 16.5-1c37.8-2.3 118.6-2.4 154.5 0 2.2.1 9.2.5 15.5.9 6.3.4 13.5.9 16 1.1 2.5.2 8.6.7 13.5 1.1 5 .3 9.8.8 10.8 1 .9.1 5.4.6 10 .9 4.5.3 9.3.8 10.7 1 1.4.2 5.4.7 9 1 3.6.3 7.6.8 9 1 1.4.2 6.3.9 11 1.5 4.7.5 10.1 1.2 12 1.5 1.9.2 5.1.6 7 .9 1.9.2 6.4.9 10 1.5 3.6.5 8.5 1.3 11 1.6 2.5.3 7 1 10 1.5s7.1 1.2 9 1.5c1.9.3 4.6.7 6 1 1.4.3 3.9.7 5.5 1 1.7.3 4.1.7 5.5 1 1.4.3 5 .9 8 1.5 5.3 1 7.4 1.4 13 2.4 24.7 4.8 89.3 19.8 101.5 23.6 1.7.6 14 4.1 27.5 8 13.5 3.9 25.4 7.5 26.5 7.9 1.1.5 8.1 2.8 15.5 5.1 7.4 2.2 14.4 4.5 15.5 5 1.1.5 7.2 2.7 13.5 4.9 29.6 10 76.2 28.4 105 41.3 33.9 15.3 75.4 35.4 93.5 45.3 16 8.8 19.1 10.6 22 12 1.7.8 3.7 2 4.5 2.5.8.5 7.8 4.5 15.5 8.9 12.1 6.8 20.6 11.8 49.8 29.7 23 13.9 70 46.3 99.2 68.3 22.3 16.7 63.8 49.8 71.1 56.6.6.5 4.2 3.7 8 7 3.7 3.3 9.3 8.2 12.4 10.9 3 2.7 7.5 6.7 10 8.9 32.1 28.3 77.5 74.2 117.9 119.2 4.7 5.2 24.4 28.4 30.1 35.5 2.5 3 4.7 5.7 5 6 .5.5 10.8 13.3 13.7 17 .6.8 3.1 4 5.5 7 5 6.2 25.5 33.4 27.8 36.7.8 1.2 5.8 8.1 11.1 15.5 5.2 7.3 11.5 16.2 13.9 19.8 2.4 3.6 4.7 6.7 5 7 .4.3.9.9 1.1 1.5.2.5 4.8 7.7 10.3 16 5.4 8.2 11.5 17.5 13.4 20.5 1.9 3 4.8 7.4 6.4 9.8 1.5 2.4 2.8 4.5 2.8 4.7 0 .2 3.5 6.1 7.8 13.2 29.3 47.8 59.9 106.6 84.4 162.3 4.9 11.3 9.6 21.9 10.4 23.7 1.8 4.1 16.2 39.8 17.8 44.3 11.6 31.7 17.6 48.5 19 53 1 3 2.1 6.4 2.6 7.5 1.6 3.7 14.1 44.7 19.6 64 8.7 30.9 17.6 67.8 23.9 99 1.9 9.3 3.9 19.2 4.5 22 .6 2.7 1.3 6.3 1.5 8 .3 1.6 1.6 9.3 2.9 17 1.4 7.7 2.7 15.8 3 18 .4 2.3.8 5 1 6 .2 1.1.7 4 1 6.5.3 2.5.8 5.5 1 6.7.3 1.2.7 5 1.1 8.4.4 3.5.8 6.6 1 6.9.2.3.6 3.4 1 7 .3 3.6.8 7.8 1 9.5 1 6.5 1.4 10.3 2 16.7.3 3.7.8 7.7 1 9 .3 1.2.7 5.7 1.1 9.8.3 4.1.7 9.3 1 11.5.2 2.2.6 7.4.9 11.5.3 4.1.8 9.5 1 12 1.1 9.9 2.6 39.6 2.8 54.7.2 8.4.5 10.3 1.7 10.4h214.2c1.5-.1 1.6-1.5 1.3-14.4-.5-17.3-1.3-33.7-2-43.7-.3-4.1-.7-10.7-1-14.5-.4-7.6-1.5-21.9-2-27.5-.2-1.9-.6-7.1-1-11.5-.3-4.4-1.1-11.8-1.6-16.5-.5-4.7-1.2-10.8-1.5-13.5-.2-2.8-.9-8.4-1.4-12.5-.5-4.1-1.2-10.2-1.6-13.5-.3-3.3-.8-6.8-1-7.9-.2-1-.6-4.4-1-7.5-.3-3.1-.8-6.3-.9-7.3-.2-.9-.6-3.8-1-6.5-1.1-7.5-1.3-9.1-3-19.8-2.1-13.5-3.8-23.3-5.1-30.5-.2-1.4-.7-4.1-1-6-.3-1.9-1.5-8.2-2.6-14-1.1-5.8-2.2-11.6-2.4-13-.2-1.4-.7-3.6-1-5-.3-1.4-.8-3.6-1-5-.2-1.4-.7-3.6-1-5-.3-1.4-.8-3.6-1.1-5-.2-1.4-.9-4.5-1.4-7-.6-2.5-1.2-5.2-1.4-6-18-81.1-38.5-151.2-65.8-225-6.2-16.7-19.3-50.1-22.2-56.5-.8-1.7-3-6.8-4.9-11.5-39.1-95.2-106.3-217.2-166.5-302-4.5-6.3-9.8-14-11.9-17-11.1-16.4-67.2-89-76.8-99.5-1.1-1.1-6.2-7.2-11.5-13.5s-10.7-12.7-12-14.1c-1.3-1.4-3.9-4.3-5.8-6.5-3.1-3.5-13.2-14.8-20.4-22.8-15.2-16.6-29.4-31.4-53.2-55.1-30.3-30.3-39.1-38.6-69-65.6-10.6-9.6-40.7-35.2-52-44.4-6-4.9-11.2-9.2-11.5-9.5-.8-.9-31.6-24.8-42.5-33-5.5-4.1-10.1-7.8-10.3-8.3-.2-.4-1-.7-1.7-.7s-1.5-.4-1.7-.8c-1.3-3.2-102.8-72.3-113.8-77.5-.8-.4-2.7-1.5-4.2-2.5-1.4-.9-10.9-6.6-21-12.6s-20-11.9-22-13.2c-2.1-1.3-4-2.4-4.4-2.4-.4 0-3.2-1.5-6.3-3.4-3.1-1.8-8.7-5-12.6-7.1-3.8-2.1-9.5-5.2-12.5-6.8-3-1.7-7.5-4.1-10-5.5-7.7-4.3-59.9-30.5-72-36.1-33.5-15.7-75.6-33.7-105-45.1-7.4-2.8-14.8-5.8-16.5-6.5-2.8-1.2-6.6-2.5-9-3.1-.5-.2-6.4-2.3-13-4.8-20.5-7.8-95.7-32.2-108.2-35.1-1-.2-8.3-2.3-16.3-4.5-13.1-3.7-63.9-16.4-81.5-20.3-6.9-1.6-54.2-11.1-60-12.1-1.6-.3-7-1.2-12-2.1-4.9-.9-10.6-1.8-12.5-2.1-1.9-.2-4.4-.7-5.6-.9-1.2-.3-5.2-.9-9-1.5-3.8-.5-8-1.2-9.4-1.4-2.4-.5-21.8-3.2-29-4.2-1.9-.2-4.8-.6-6.5-.8-1.6-.3-5.7-.8-9-1.2-3.3-.3-6.9-.8-8-1-1.1-.2-4.9-.7-8.5-.9-3.6-.3-7.6-.7-9-1-5.4-.8-26.2-2.9-41-4-3-.2-8.4-.7-12-1-8.1-.7-17.4-1.3-31-2-5.8-.3-13.9-.8-18.1-1-21.2-1.3-111.1-2.8-112.2-1.9z"/><path d="M1667.7 791.7c-.1.1-7.6.4-16.7.8-19.8.8-25.2 1.1-35 2-4.1.3-9.7.8-12.5 1.1-4.9.4-10.6 1-17.5 1.9-8.4 1.1-11.8 1.5-16 2-8.7 1-34.7 5.6-51.5 9-95.9 19.7-183.3 57.3-258.5 111.4-9.6 6.9-35.8 27.4-40.5 31.7-1.1 1.1-5 4.4-8.5 7.5-17.2 14.9-36.9 36.2-58.8 63.6-10.7 13.4-33.3 47.5-41.6 62.8-2.1 3.8-4.2 7.4-4.6 8-1.7 2.1-16.1 31.6-21.5 44-8.4 19-21.7 54.2-24.5 65-.4 1.6-2 7-3.5 12-1.5 4.9-2.9 9.8-3.1 10.7-.2 1-.6 2.6-.9 3.5-3.2 11.5-9.1 36.8-10.1 43.1-.3 2-.7 3.9-.9 4.2-.4.7-6.2 33.7-7 39.5-.2 2.2-.7 5.1-.9 6.5-.2 1.4-.7 5.2-1.1 8.5-.4 3.2-.8 6.6-1 7.5-.2.8-.6 4.9-1 9s-.9 8.2-1 9.1c-.2.9-.6 5.6-1 10.5-.3 4.9-.8 10.9-1 13.4-1.9 19.5-2.8 45.1-3 87-.1 20.6 0 37.9.2 38.5.3 1 403.8 1.4 404.7.4.3-.2.7-8.1 1.1-17.4.6-18.1 1.2-30.7 2-42 .3-3.9.7-9.9 1-13.4.7-10.8 4.4-39.3 7-54.6 2.7-16.1 10.2-42.4 17.7-62.5 26.1-69.9 84.2-121.3 158.4-139.9 6.5-1.6 13.7-3.2 15.9-3.5 2.3-.4 5.1-.8 6.4-1.1 10.6-2 45.3-2.7 63.6-1.3 38.9 3.1 77.3 14.6 105.3 31.5 30.1 18.2 51.1 40.7 66.3 71.3 4.8 9.7 12.2 30 13.4 36.9.3 1.9.8 3.7 1 4 .2.4.6 2.7 1 5.1.3 2.5.8 5.2 1 6 .2.8.7 4.2 1 7.5.4 3.3.9 7.3 1.1 9 .5 4.1.4 38-.1 43-1.8 17.4-2 18.6-4.6 31.5-9.1 45.2-35.2 85.7-81.5 126.5-4.3 3.8-8.4 7.4-9 8-8.3 7.4-35.5 28.5-51.2 39.5-3.5 2.5-9.1 6.6-12.6 9.1-3.5 2.6-6.8 4.8-7.2 5-.5.2-13.1 8.5-28.1 18.4-28.1 18.6-42.3 27.9-77.3 50.5-11.3 7.3-26.1 17-33 21.5-6.9 4.5-24.3 15.2-38.7 23.9-24.2 14.5-145.4 94.5-174.3 115.1-33.7 23.9-83 61.5-104.5 79.6-1.1 1-4 3.4-6.5 5.4-9.7 8-30.2 25.9-44.5 38.9-13.6 12.3-55.8 54.5-64.5 64.5-3.6 4-7.1 8-7.8 8.7-8.7 9-33.4 41.3-47.3 61.9-8.4 12.3-24.9 38.9-24.9 40 0 .2-1.4 2.8-3.2 5.7-3.1 5.3-21.8 42.2-21.8 43.2 0 .2-1.5 3.7-3.3 7.8-1.8 4-4.1 9.3-5.1 11.8s-2.4 5.8-3.1 7.5c-12.4 29.2-27.4 80.8-34.9 120-.9 4.4-2 10.2-2.6 13-1.3 6.7-5.7 37.3-6.5 45.5-.4 3.6-.8 7.6-1 9-.2 1.4-.7 6.2-1 10.8-.3 4.6-.8 9.8-1 11.5-.4 3-1.1 16.2-2 34.7-.7 13.8-.8 44.8-.2 45.8.6.8 1251.7 1.4 1251.7.5 0-.1 4.1-14.6 9.1-32 5-17.5 9.2-32.5 9.4-33.3.2-.8 3.8-13.4 8-28s7.8-27.2 8-28c.2-.8 4.3-15 9-31.5 9-31.2 22.3-77.5 23.2-81 .3-1.1 8.9-31 18.9-66.5 10.1-35.4 18.4-64.9 18.4-65.5 0-.7-119.6-1-387-1-212.8 0-387-.1-387-.3 0-.2 4.7-5 10.4-10.6 18.4-18.3 28.3-25.7 99.1-74.1 7.2-4.9 17.3-11.8 22.5-15.4 30.6-21 42.3-28.8 78-52.5 21.7-14.5 43.7-28.9 48.8-32.2 5.1-3.2 14.7-9.5 21.3-13.9 6.6-4.4 12.8-8.5 13.7-9 1-.6 10.3-6.7 20.7-13.6 33.5-22.2 50.3-32.5 65.5-40.3 10.4-5.3 13.8-7.5 43.9-28.1 11.2-7.7 21.3-14.7 22.5-15.4 16.5-11.2 65.4-46.7 67.6-49.1.3-.3 3.9-3.2 8-6.5 4.1-3.2 7.7-6.1 8-6.4.3-.4 4.1-3.7 8.5-7.6 4.4-3.8 9.6-8.5 11.6-10.5 2-1.9 6.2-5.8 9.4-8.5 12.4-10.6 15.5-13.5 33.1-31 9.9-9.9 20.9-21.4 24.5-25.5 3.5-4.1 6.7-7.7 7-8 .4-.3 5.5-6.6 11.5-14.1 22-27.6 40.4-56.1 56.3-87.4 13.8-27.2 21.6-46 30.5-73.3 4.1-12.6 12.5-44.1 14-52.7.3-1.7.8-4.1 1.1-5.5 1-4.9 3.4-18.6 4-22.5.3-2.2 1-6.7 1.5-10s1.2-8.9 1.5-12.5c.3-3.5.7-7.6 1-9 .2-1.4.6-6.8 1-12 .3-5.2.8-11.8 1.1-14.5.7-6.9.7-57.5 0-65.5-.3-3.6-.8-10.1-1.1-14.5-.4-4.4-.8-9.4-1.1-11-.2-1.7-.6-5.5-.9-8.5-.2-3-.7-6.6-.9-8-.3-1.4-1-5.9-1.5-10-4.7-33.2-15.8-76.1-27.1-105-1.2-3-2.8-7.3-3.6-9.5-.8-2.2-2.1-5.4-2.8-7-.7-1.7-2.6-5.9-4.2-9.5-31-71.5-86-140.3-152.4-190.6-57.6-43.7-125.9-77.1-201.9-98.9-13.5-3.8-39.4-10.4-47.1-11.9-1.4-.3-4.5-.9-7-1.4-6.4-1.4-19.9-4-23.5-4.6-1.6-.3-7-1.2-12-2-4.9-.8-11.2-1.7-14-2.1-2.7-.3-6.1-.8-7.5-1-9.9-1.5-35.2-4.2-47-5-4.7-.4-10.7-.8-13.5-1-16.3-1.2-81-2.6-81.8-1.8z"/><path d="M.7 1709.6c-.9.9 1.8 60.4 3.8 82.9.9 10 1.7 20.1 2 25 .2 2.7.6 7.2.9 10 .3 2.7.8 7.7 1.1 11 .3 3.3.8 7.6 1 9.5.2 1.9.7 6 1 9 .3 3 .8 7.3 1.1 9.5.3 2.2.7 5.8 1 8 .2 2.2.9 7.1 1.4 11 .5 3.8 1.2 9 1.5 11.5.4 2.5.8 5.6 1 7 .2 1.4.9 6.1 1.5 10.5.7 4.4 1.3 8.7 1.5 9.5.1.8 1 6.4 2 12.4.9 5.9 1.9 11.8 2.1 13 .2 1.1.9 4.8 1.4 8.1 1.5 8.8 1.9 11.5 3.1 17.1.5 2.8 1.2 6.4 1.5 8 .3 1.6 1.6 8.3 3 14.9 1.3 6.6 2.6 12.9 2.8 14 .2 1.1 1.4 6.5 2.6 12 1.2 5.5 2.4 11.1 2.6 12.4.3 1.4.7 2.8.9 3.2.3.4.7 2.3 1 4.2.5 2.8 10.4 43.4 13 52.7.2.8 1.2 4.6 2.3 8.5 1.1 3.8 2.9 10.4 4 14.6 10.9 39.3 37.2 119.1 46.6 141.4.8 1.6 2.3 5.5 3.4 8.5 15.9 41.2 35.2 85.4 55.3 126.9 5.4 11.2 9.9 20.7 9.9 21.1 0 .5.3 1 .8 1.2.4.1 2.7 4.3 5.2 9.3 14.3 28.6 40.4 75.1 61.8 110 11.4 18.5 48.5 75.6 51.4 79 .5.5 5 6.8 10.1 14 13.2 18.6 15.7 22.1 29.6 40.5 27 35.8 60.9 77 86.7 105.5 4 4.4 8.2 9.1 9.4 10.5 2.3 2.7 16.4 17.9 25 27 19.7 20.8 58.1 58.8 78 77 5.7 5.2 12.7 11.6 15.4 14.2 5.5 5 6 5.5 15.6 13.8 3.5 3 8.5 7.3 11 9.6 2.5 2.2 7.2 6.2 10.5 9 3.3 2.7 6.2 5.1 6.5 5.4 7.6 7.7 67.9 54.8 95 74.3 3.6 2.5 7 5 7.5 5.4.6.5 3.9 2.9 7.5 5.3 3.6 2.5 6.7 4.7 7 5 2 2.1 55.3 37.4 75 49.7 12.5 7.7 37.2 22.7 42.8 25.8.9.5 7.3 4.2 14.2 8.1 14 8 18.9 10.7 30.5 17 22.7 12.2 31.1 16.5 54.5 28 14 6.9 26.2 12.9 27 13.3 1.5.8 26.8 12.3 38.5 17.6 4 1.8 23.1 9.9 41.3 17.6 1.2.5 3.2 1.3 4.5 1.8 13.5 5.8 46.6 18.3 70.8 26.9 28.1 10.1 84.7 28.1 95.9 30.7.8.2 5.3 1.5 10 2.8 8.5 2.5 13.6 3.8 14.5 3.7.3 0 2.1.6 4 1.4 1.9.8 3.5 1.3 3.5 1.1 0-.3 1.1 0 2.5.5s3.6 1.2 4.8 1.4c1.2.2 7.6 1.8 14.2 3.5 11.4 2.9 37.6 9.2 44 10.5 1.7.4 3.9.8 5 1.1 26.6 5.6 58.1 11.8 65.8 13 3.3.6 4.8.8 19.9 3.4 6.4 1.1 13.6 2.3 16 2.6 2.4.3 5.4.8 6.8 1 7.8 1.2 16.2 2.5 20.9 3 3 .4 6.1.8 7 1 .9.1 4.5.6 8.1 1 3.6.4 7.2.9 8 1 .8.2 4 .6 7 .9 3 .4 6.9.8 8.5 1 1.7.3 6.6.7 11 1.1 4.4.4 8.7.9 9.5 1 .8.2 4.9.6 9 .9 4.1.4 9.3.9 11.6 1.1 2.3.3 7.9.7 12.5 1 4.6.3 10 .7 11.9 1 1.9.2 8.2.7 14 1 5.8.3 13.4.8 17 1 40.3 2.7 148.5 2.7 189 0 3-.2 10.2-.6 16-1 5.8-.3 12.1-.8 14-1 1.9-.1 7.6-.6 12.7-1 5-.3 10.2-.8 11.5-1 1.3-.2 6-.6 10.6-1 4.6-.3 9.8-.7 11.5-1 3.1-.4 9-1.1 19.2-2 2.8-.3 8.2-.9 12-1.5 3.9-.5 9.3-1.2 12-1.5 2.8-.3 6.1-.8 7.5-1 1.4-.2 4.6-.6 7.1-.9 2.5-.4 5.7-.9 7-1.1 1.3-.2 6-.9 10.4-1.5 8.6-1.2 8.3-1.2 22.6-3.5 5.3-.8 10.9-1.7 12.5-1.9 5.1-.8 37-6.8 48.4-9.1 100.5-20.3 191.4-47.3 286.9-85.1 11.9-4.7 24-9.7 26.9-11 2.9-1.3 5.5-2.4 5.7-2.4.5 0 29.5-12.7 41-18 3.9-1.7 10.2-4.6 14-6.3 9.1-4.2 72.1-35.6 80.5-40.3 6.7-3.6 14-7.7 24.5-13.4 3.3-1.8 7.8-4.4 10-5.7 2.2-1.3 6.5-3.7 9.5-5.3 3-1.7 6.2-3.5 7-4 .8-.5 10.1-6.1 20.5-12.3 47.1-28.1 94.2-59.6 138.5-92.7 14.3-10.6 39.8-30.2 44.5-34.1 1.1-1 9.7-8 19.1-15.7 17.4-14.1 36.2-30.2 51.7-44.2 2.7-2.5 5.7-5.2 6.7-6 22.3-19.5 68.1-64.3 96-93.9 17.1-18.2 15.3-16.3 26-28.1 4.7-5.2 8.7-9.7 9-10 .5-.5 24.4-28.1 29.3-34 11.8-13.9 31-37.8 42.7-53 1.9-2.5 3.8-5 4.3-5.5 15.7-20.1 37.1-50 62.8-87.6 3.5-5.1 18.9-28.8 23.6-36.4 9.8-15.6 23.3-37.6 23.3-37.9 0-.1 3.1-5.4 6.8-11.7 3.8-6.3 7.2-12.1 7.6-12.9.4-.8 1.2-2.4 1.9-3.5 11.2-18.4 56.7-106 55.8-107.3-.2-.2.4-1.4 1.3-2.7.8-1.2 3.5-6.7 6-12.2 2.4-5.4 6-13.3 8-17.5 17.1-36.8 41.4-98.6 57.6-146.4 6.9-20.3 21.2-65.7 22.5-71.2.3-.9 2.7-9.8 5.5-19.7 2.8-9.9 5.2-18.9 5.5-20 .2-1.1 2.9-11.9 6-24s6-23.8 6.4-26c.5-2.2 2.9-13.5 5.4-25 5.7-26.3 12.6-62.5 15.1-79 .3-1.7 1.2-7.5 2.1-13 .9-5.5 1.8-11.6 2-13.5.2-1.9.6-4.9.9-6.5.3-1.7.8-5 1.1-7.5.3-2.5.8-5.6 1-7 .2-1.4.7-4.9 1-7.9.4-3 .9-6.3 1.1-7.5.2-1.1.6-5 .9-8.6.3-3.6.8-7.6 1-9 .5-2.4.7-4.3 2-17.5.3-3.3.8-7.8 1-10 .5-3.9 1.1-10.1 2-22 .2-3.3.7-8.7.9-12 1.9-22.2 3.3-48.6 4.1-73.1l.5-15.2h-217l-.1 3.7c-.4 11.1-1.9 42.1-2.4 48.1-.2 3-.7 9.5-1 14.5-.9 12.2-1.4 18.2-1.9 23.5-.3 2.5-.8 7.4-1.1 11-1.3 13.8-2.5 24.5-5 44.2-.3 2.4-.8 6.1-1.1 8.3-.2 2.2-.7 5.1-.9 6.5-.2 1.4-.7 4.5-1 7-.3 2.5-.8 5.6-1 7-.3 1.4-.7 4.3-1 6.5-.2 2.2-.7 5.1-1 6.5-.2 1.3-.7 4.2-1 6.5-.3 2.2-.8 4.7-1 5.5-.2.8-.6 3.3-1 5.5-1.3 9.4-5.3 30.7-9.1 48-.2 1.1-.7 3.6-1 5.5-.4 1.9-.8 4.2-.9 5-.2.8-1.7 7.5-3.4 14.8-1.7 7.3-3.3 14.7-3.6 16.4-.3 1.7-.8 3.4-1 3.8-.2.3-.6 1.7-.9 3.1-2.3 12.1-18.3 69.3-27.1 97.1-5.4 16.8-15.2 46-17 50.3-.7 1.6-3.4 8.8-6 16-2.6 7.1-5.1 13.9-5.6 15-.4 1.1-3.6 9-6.9 17.5-3.4 8.5-6.7 16.8-7.4 18.5-.8 1.6-3.5 7.9-6.1 14-2.6 6-5.8 13.5-7.2 16.5-1.4 3-3.1 6.8-3.8 8.5-10.4 23.2-20.7 44.4-35.2 72.4-4.1 8-8.3 15.9-9.3 17.6-.9 1.6-3.9 7-6.5 12-5.3 10-8.4 15.3-26.7 46-24.7 41.6-51.5 81.6-82.7 123.5-6.4 8.5-11.8 15.7-12.1 16-.3.3-5.1 6.3-10.7 13.5-5.5 7.1-11.4 14.5-13 16.4-17.8 21.5-37.9 45.1-45.8 53.7-.5.6-4.6 5.1-9 9.9-27.6 30.4-66.2 68.8-97.4 97.1-3 2.7-6.2 5.6-7.1 6.4-30.3 27.8-90.3 75.7-129.5 103.3-8.5 6-49.4 33.4-61 40.9-9.9 6.3-44.9 27.5-51.5 31.1-3 1.6-5.9 3.3-6.5 3.7-.5.4-3 1.9-5.5 3.2-2.5 1.4-6.3 3.5-8.5 4.8-2.2 1.3-12.1 6.6-22 11.9-92.8 49.7-193.2 89.8-295 118-18 5-43.8 11.6-48.5 12.4-1.4.3-4.5 1-7 1.7s-5.4 1.4-6.5 1.6c-1.1.3-3.8.9-6 1.4-7.5 1.6-53 10.9-56.5 11.5-1.9.3-8.4 1.4-14.5 2.5-15.7 2.7-16.6 2.9-21 3.5-2.2.2-5.1.7-6.5.9-1.4.3-6.1 1-10.5 1.6-4.4.6-9.1 1.3-10.5 1.5-2.8.4-8.3 1.2-15 2-2.5.3-6.1.7-8 1-1.9.2-6 .7-9 1-3 .4-6.6.8-8 1-2.6.4-10 1.1-19.2 2-2.9.3-8 .7-11.3 1-3.3.4-8.7.8-12 1-3.3.2-9.4.7-13.5 1-4.1.3-10.4.7-14 1-45.4 3.3-132 3.3-180 0-6-.4-14.7-1-27.5-2-2.7-.2-7.5-.6-10.5-.9-3-.3-8.6-.8-12.5-1.1-7.2-.6-11.7-1.1-19.2-2-2.4-.3-6.4-.7-9-1.1-9.7-1.1-19.1-2.2-24.3-2.9-1.9-.3-5.3-.7-7.5-1-2.2-.3-4.9-.7-6-.9-1.2-.2-4.8-.8-8-1.2-3.3-.4-6.2-.8-6.5-.9-.9-.2-9.5-1.7-12-2-4.1-.6-14.3-2.4-17-2.9-1.4-.3-4.1-.7-6-1-3.1-.4-7.3-1.2-17-3.1-1.4-.3-5.9-1.2-10-2s-8.4-1.6-9.5-1.9c-5.4-1.1-18.3-3.8-20.4-4.2-1.2-.3-5.3-1.2-9-2-3.6-.9-7.3-1.7-8.1-1.9-5.7-1.2-44.6-11.2-58.1-14.9-73.2-20.2-158.8-51.7-220.4-81-6.4-3.1-11.9-5.6-12.1-5.6-.7 0-46.9-23.2-56.4-28.2-33.9-18.2-58.2-32.1-88-50.6-15.4-9.6-57.3-37.1-61.5-40.4-.5-.5-8.6-6.2-17.8-12.8-18.4-13.1-44.5-32.8-60.2-45.4-10.7-8.6-40.7-33.5-41.5-34.5-.3-.3-5-4.5-10.5-9.2-5.5-4.8-11.2-9.7-12.6-11-1.4-1.3-7.2-6.7-12.9-11.9-38.5-35.3-95.1-93.9-119.6-123.9-1-1.3-2.4-2.8-2.9-3.5-.6-.6-4.8-5.6-9.4-11.1-4.5-5.5-9-10.9-10-12-14.3-17.2-46.6-59.6-58.7-77-.7-1.1-3.3-4.7-5.6-8-13.4-18.7-39-58-53.5-82-20.9-34.6-37.8-65.4-56.7-103.2-10.1-20.3-13.3-26.9-19.8-41.3-1.6-3.6-3.8-8.3-4.8-10.5-16.3-35-38.2-91-53.5-137.1-6.7-20-20.6-65.7-22-72.4-.2-.8-1.3-4.9-2.4-9-5-18.9-8-30.7-8.4-33-.3-1.4-1.3-5.4-2.2-9-.9-3.6-1.9-7.6-2.2-9-.2-1.4-1.1-5.4-1.9-9-1.6-6.9-6.3-29.2-6.9-32.5-.2-1.1-1-5.6-1.9-10-.8-4.4-1.8-9.6-2.1-11.5-.3-1.9-.8-4.2-1-5-.2-.8-.6-3.3-1-5.5-.3-2.2-.7-4.7-1-5.5-.2-.8-.7-3.8-1.1-6.5-.7-5.7-.7-5.7-2.7-18.5-2.1-12.8-2.3-14.6-4.2-29-.9-6.9-1.8-13.6-2-15-.2-1.4-.6-5.4-1-9-.4-3.6-.8-7.6-1-9-.2-1.4-.7-5.6-1-9.4-.3-3.8-.8-8.3-1-10-.2-1.7-.6-6.5-1-10.6-.3-4.1-.8-9.5-1-12-.2-2.5-.7-9-1.1-14.5-.3-5.5-.7-12-.9-14.5-.2-2.5-.7-11.7-1.1-20.5-.6-16-1-23.5-1.3-24.6-.1-.7-215.7-.9-216.4-.3z"/></svg>