<svg id="Layer_1" data-name="Layer 1" xmlns="http://www.w3.org/2000/svg" viewBox="0 0 1791 1454"><defs><style>.cls-1{fill:#fff;fill-rule:evenodd;}</style></defs><title>hyenas</title><path class="cls-1" d="M1377,840l120-221,354-132q-22-62.49-44-125l-214,80,115-212-116-67-2,1L1400,515,956,681,508,512,317,163,202,231,314,438,154,377c-7.65-3.1-48.3-17.75-50-16L60,484,412,618,532,840,159,980q22,62,44,124L485,999c19.23-7.55,97-42.68,112-41l357,659,2-1,357-657,392,148,44-126L1377,841ZM606,692l158,60v1L659,791Q632.51,741.5,606,692Zm348,642v-2L724,910l228-87,233,88Zm337-617-41,75c-11.7-2.17-101.67-35.93-106-41l158-59C1304,693.32,1293.83,712.2,1291,717Z" transform="translate(-60 -163)"/></svg>