<svg id="Layer_1" data-name="Layer 1" xmlns="http://www.w3.org/2000/svg" viewBox="0 0 1784.71 1638.58"><defs><style>.cls-1{fill:#fff;fill-rule:evenodd;}</style></defs><title>TCTD2_UI_icons_outcast_white [Converted]</title><path class="cls-1" d="M318,308l-57,58L420,525c1.32,10-18,23-26,31l-86,86-47,49,58,58L481,588,643,749l58-57v-3L540,529,701,368v-3l-58-57L481,469,320,308Z" transform="translate(-63.33 -69.42)"/><path class="cls-1" d="M1267,308l-58,58,162,162L1209,690l59,59,75-74,86-88,162,162,59-58L1488,529l162-162-31-31-27-28h-2L1430,469,1269,308Z" transform="translate(-63.33 -69.42)"/><path class="cls-1" d="M1834,451l-33,17c1.14,32.38,8,71.62,2,106-25.22,144.53-101.35,246.74-219,298-150.73,65.67-293.21,24.29-395-56-17-13.42-36.92-29.94-49-48l-37-70c-12.73-21.88-28.28-43.88-36-70-65.53-221.62,91.11-403.24,241-456,46.31-16.3,117.73-27.77,178-16,77.72,15.18,113.57,39.53,170,72l34-20c-13.09-16.07-32.91-27.88-50-40-106.31-75.36-294.33-127.9-456-65-71.41,27.78-123.92,64.53-178,108l-48,53-2-1c-12.62-28-55.82-63.44-80-82-55.47-42.57-116.45-77.83-195-98-128.56-33-275.71-1.66-362,49-24.67,14.48-89.84,51.08-101,74l38,21,50-32c35.46-20.76,79.1-31.11,126-40,58.25-11,127.23,1.18,171,17,111.48,40.3,197.76,122.83,235,237,9.19,28.19,11.52,55.26,17,89,6.73,41.46.14,92.07-10,126-9.15,30.62-26.1,55.54-41,81l-33,63c-64.21,94.46-240.73,170.55-399,121-100.9-31.59-171.92-96.33-221-180-25.6-43.65-35-93.63-45-154-3.18-19.13,6.66-82.48,2-88L78,449c-9,11.11-7.11,35.59-10,52-10.83,61.4-1.3,135.49,13,185,43.86,151.82,138.4,262.55,274,322a577.16,577.16,0,0,0,88,30l48,9c-14.29,31.92-23.61,68-32,106-7.4,33.54-11.22,82-5,119,6.09,36.25,6.54,67,16,98,36.54,119.83,105.11,209.44,199,272,35.23,23.47,91.65,59.93,141,66v-31c-37.07-7.66-69.88-38.35-96-59-81.39-64.36-165.67-210.58-126-368,25.23-100.13,81.64-190.17,163-234v267l41,48,41-49V975c24.69-6.25,53.39-19.53,81-20v377c14.32,11.82,25,41.7,43,48l40-49V955c28.73-.43,55.22,14.81,81,20v308l41,48,41-48V1016c100.4,54.35,206,224.34,163,395-27.75,110.17-86.54,187.59-172,240-17.08,10.47-35.74,23.16-57,29v27h1c161.23-59.93,262.55-150.62,324-310,22.07-57.24,37.94-150.75,23-230-7.83-41.52-19.89-77.39-31-113,239-27.49,390.39-199,433-426C1855.38,567.37,1839.65,501.8,1834,451ZM1025,872H886l-30-43,82-153h35l82,155Z" transform="translate(-63.33 -69.42)"/></svg>